<svg width="101" height="101" viewBox="0 0 101 101" fill="none" xmlns="http://www.w3.org/2000/svg">
<g clip-path="url(#clip0_22_5)">
<circle cx="50.2841" cy="50.003" r="50" fill="#050A30"/>
<path d="M51.9979 59.1683L50.2979 60.0683L60.3979 34.5183C60.6145 33.9516 60.8729 33.56 61.1729 33.3433C61.4729 33.11 61.8812 32.9933 62.3979 32.9933H68.5479C68.8979 32.9933 69.1562 33.06 69.3229 33.1933C69.5062 33.31 69.5979 33.4933 69.5979 33.7433C69.5979 33.9266 69.5312 34.085 69.3979 34.2183C69.2812 34.3516 69.0729 34.46 68.7729 34.5433L67.1229 34.8933C66.5895 35.0266 66.2229 35.235 66.0229 35.5183C65.8395 35.785 65.7729 36.235 65.8229 36.8683L67.8979 64.5433C67.9312 65.06 68.0479 65.4183 68.2479 65.6183C68.4479 65.8183 68.7895 65.9766 69.2729 66.0933L70.8729 66.4433C71.1562 66.51 71.3562 66.61 71.4729 66.7433C71.5895 66.8766 71.6479 67.035 71.6479 67.2183C71.6479 67.435 71.5645 67.6183 71.3979 67.7683C71.2312 67.9183 70.9729 67.9933 70.6229 67.9933H59.4729C59.1229 67.9933 58.8562 67.9266 58.6729 67.7933C58.5062 67.66 58.4229 67.4766 58.4229 67.2433C58.4229 67.06 58.4812 66.9016 58.5979 66.7683C58.7312 66.635 58.9479 66.5266 59.2479 66.4433L60.8479 66.0933C61.4145 65.96 61.7979 65.785 61.9979 65.5683C62.1979 65.3516 62.2812 65.0183 62.2479 64.5683L60.0729 36.8433L61.6479 36.7433L50.8229 64.4683C50.6229 64.985 50.4229 65.3266 50.2229 65.4933C50.0229 65.6433 49.7895 65.7183 49.5229 65.7183C49.3229 65.7183 49.1395 65.685 48.9729 65.6183C48.8229 65.5516 48.6729 65.4266 48.5229 65.2433C48.3895 65.06 48.2479 64.7766 48.0979 64.3933L36.9729 37.3183L38.4729 36.4683L36.2479 63.7183C36.1979 64.3683 36.3395 64.8683 36.6729 65.2183C37.0062 65.5683 37.4979 65.8516 38.1479 66.0683L39.8979 66.5183C40.1312 66.585 40.3062 66.6766 40.4229 66.7933C40.5562 66.8933 40.6229 67.0433 40.6229 67.2433C40.6229 67.46 40.5312 67.6433 40.3479 67.7933C40.1812 67.9266 39.9229 67.9933 39.5729 67.9933H31.1229C30.7729 67.9933 30.5062 67.9266 30.3229 67.7933C30.1562 67.66 30.0729 67.4766 30.0729 67.2433C30.0729 67.01 30.1479 66.835 30.2979 66.7183C30.4645 66.6016 30.6812 66.5016 30.9479 66.4183L32.3479 66.0183C32.9479 65.8516 33.4145 65.5933 33.7479 65.2433C34.0812 64.8766 34.2729 64.36 34.3229 63.6933L36.4979 37.2433C36.5645 36.56 36.4812 36.035 36.2479 35.6683C36.0312 35.285 35.6479 35.035 35.0979 34.9183L33.5979 34.6183C33.2812 34.535 33.0395 34.4266 32.8729 34.2933C32.7229 34.16 32.6479 33.985 32.6479 33.7683C32.6479 33.2516 33.0229 32.9933 33.7729 32.9933H39.8729C40.3562 32.9933 40.7479 33.0933 41.0479 33.2933C41.3479 33.4766 41.6062 33.8516 41.8229 34.4183L51.9979 59.1683Z" fill="white"/>
</g>
<defs>
<clipPath id="clip0_22_5">
<rect width="100" height="100" fill="white" transform="translate(0.284058 0.00299072)"/>
</clipPath>
</defs>
</svg>
